# xmcd
#
# Track frame offsets:
#	300
#	30784
#	51786
#	94319
#	115721
#	128747
#	163971
#	201429
#
# Disc length: 2907 seconds
# Revision: 2
# Processed by: cddbd v1.5.2PL0 Copyright (c) Steve Scherf et al.
# Submitted via: dBpowerAMP V12.0
#
DISCID=680b5708
DTITLE=Krzak - Live in Waltrop 2001
DYEAR=2001
DGENRE=Blues
TTITLE0=Blues E-Dur
TTITLE1=Iluzyt
TTITLE2=Blues H-mol - Smuteczek
TTITLE3=Czakuś
TTITLE4=Skałki
TTITLE5=Dla Fredka
TTITLE6=Dżemowa maszynka
TTITLE7=Ściepka
EXTD=
EXTT0=
EXTT1=
EXTT2=
EXTT3=
EXTT4=
EXTT5=
EXTT6=
EXTT7=
PLAYORDER=
